<svg 
	xmlns="http://www.w3.org/2000/svg"
	viewBox="0 -250 1200 1800">
	
	
	<style>
	<![CDATA[
		g.konnektor {
			//visibility: hidden
		}
		g.kapcsolo {
			//visibility: hidden;
		}
	]]>
	</style>
	
	<!-- falak -->
	<g>
		<!-- nappali felso falak -->
		<line x1="200" y1="195" x2="530" y2="195" stroke-width="10" stroke="black"/>
		<line x1="530" y1="195" x2="890" y2="195" stroke-width="2" stroke="black"/>
		<line x1="890" y1="195" x2="919.5" y2="195" stroke-width="10" stroke="black"/>
		<line x1="919" y1="195" x2="1079" y2="195" stroke-width="2" stroke="black"/>
		<line x1="1079" y1="195" x2="1111" y2="195" stroke-width="10" stroke="black"/>
		
		<!-- nappali jobb oldali falak -->
		<line x1="1116" y1="200" x2="1116" y2="232" stroke-width="10" stroke="black"/>
		<line x1="1116" y1="232" x2="1116" y2="485" stroke-width="2" stroke="black"/>
		<line x1="1116" y1="485" x2="1116" y2="588" stroke-width="10" stroke="black"/>
		<line x1="1116" y1="588" x2="1116" y2="699" stroke-width="2" stroke="black"/>
		<line x1="1116" y1="699" x2="1116" y2="764" stroke-width="10" stroke="black"/>
		
		<!-- nappali bal oldali falak -->
		<line x1="195" y1="200" x2="195" y2="488" stroke-width="10" stroke="black"/>
		<line x1="195" y1="488" x2="195" y2="598" stroke-width="2" stroke="black"/>
		<line x1="195" y1="598" x2="195" y2="669" stroke-width="10" stroke="black"/>
		
		<!-- nappali also falak -->
		<line x1="1111" y1="769" x2="755" y2="769" stroke-width="10" stroke="black"/>
		<line x1="200" y1="674" x2="634" y2="674" stroke-width="10" stroke="black"/>
		<line x1="614" y1="679" x2="614" y2="699" stroke-width="10" stroke="black"/>
		<line x1="609" y1="694" x2="629" y2="694" stroke-width="10" stroke="black"/>
		
		<line x1="614" y1="879" x2="634" y2="879" stroke-width="10" stroke="black"/>
		<line x1="614" y1="874" x2="614" y2="894" stroke-width="10" stroke="black"/>
		
		<!-- kozlekedoz jobb oldal falak -->
		<line x1="760" y1="769" x2="760" y2="953" stroke-width="10" stroke="black"/>
		<line x1="760" y1="953" x2="760" y2="1043" stroke-width="2" stroke="black"/>
		<line x1="760" y1="1043" x2="760" y2="1167" stroke-width="10" stroke="black"/>
		<line x1="760" y1="1167" x2="760" y2="1257" stroke-width="2" stroke="black"/>
		<line x1="760" y1="1257" x2="760" y2="1268" stroke-width="10" stroke="black"/>
		
		<!-- kozlekedo bal oldal falak -->
		<line x1="629" y1="674" x2="629" y2="785" stroke-width="10" stroke="black"/>
		<line x1="629" y1="785" x2="629" y2="855" stroke-width="2" stroke="black"/>
		<line x1="629" y1="855" x2="629" y2="904" stroke-width="10" stroke="black"/>
		<line x1="629" y1="899" x2="429" y2="899" stroke-width="10" stroke="black"/>
		<line x1="434" y1="904" x2="434" y2="1004" stroke-width="2" stroke="black"/>
		<line x1="548" y1="1005" x2="548" y2="1276" stroke-width="10" stroke="black"/>
		
		<!-- kozlekedo also falak -->
		<line x1="548" y1="1280" x2="608" y2="1280" stroke-width="10" stroke="black"/>
		<line x1="608" y1="1280" x2="709" y2="1280" stroke-width="2" stroke="black"/>
		<line x1="709" y1="1280" x2="755" y2="1280" stroke-width="10" stroke="black"/>
		<line x1="760" y1="1285" x2="760" y2="1260" stroke-width="10" stroke="black"/>
		
		<!-- furdoszoba falak -->
		<line x1="434" y1="899" x2="434" y2="674" stroke-width="10" stroke="black"/>
		<line x1="195" y1="679" x2="195" y2="1004" stroke-width="10" stroke="black"/>
		<line x1="200" y1="1009" x2="449" y2="1009" stroke-width="10" stroke="black"/>
		<line x1="449" y1="1009" x2="543" y2="1009" stroke-width="2" stroke="black"/>
		
		<!-- haloszoba falak -->
		<line x1="195" y1="1014" x2="195" y2="1367" stroke-width="10" stroke="black"/>
		<line x1="200" y1="1367" x2="281" y2="1367" stroke-width="10" stroke="black"/>
		<line x1="281" y1="1367" x2="461" y2="1367" stroke-width="2" stroke="black"/>
		<line x1="461" y1="1367" x2="543" y2="1367" stroke-width="10" stroke="black"/>
		<line x1="548" y1="1367" x2="548" y2="1002" stroke-width="10" stroke="black"/>
		
		<!-- nori szoba falak -->
		<line x1="1116" y1="1086" x2="1116" y2="1445" stroke-width="10" stroke="black"/>
		<line x1="1111" y1="1450" x2="1031" y2="1450" stroke-width="10" stroke="black"/>
		<line x1="1031" y1="1450" x2="851" y2="1450" stroke-width="2" stroke="black"/>
		<line x1="851" y1="1450" x2="771" y2="1450" stroke-width="10" stroke="black"/>
		<line x1="769" y1="1450" x2="769" y2="1257" stroke-width="10" stroke="black"/>
		
		<!-- csongi szoba falak -->
		<line x1="1116" y1="774" x2="1116" y2="851" stroke-width="10" stroke="black"/>
		<line x1="1116" y1="851" x2="1116" y2="1031" stroke-width="2" stroke="black"/>
		<line x1="1116" y1="1031" x2="1116" y2="1111" stroke-width="10" stroke="black"/>
		<line x1="1111" y1="1111" x2="765" y2="1111" stroke-width="10" stroke="black"/>
		
		<line x1="400" y1="200" x2="400" y2="-200" stroke-width="10" stroke="black"/>
		<line x1="400" y1="-200" x2="1416" y2="-200" stroke-width="10" stroke="black"/>
		<line x1="1416" y1="-200" x2="1416" y2="699" stroke-width="10" stroke="black"/>
		<line x1="1416" y1="699" x2="1116" y2="699" stroke-width="10" stroke="black"/>
	</g>
	
	<!-- kapcsoló vonalak-->
	<g class="kapcsolo-vonal">
		<line x1="515" y1="210" x2="240" y2="280" stroke-width="2" stroke="orange"/>
		<line x1="265" y1="609" x2="515" y2="210" stroke-width="2" stroke="orange"/>
		<line x1="772" y1="923" x2="940" y2="940" stroke-width="2" stroke="orange"/>
		<line x1="203" y1="615" x2="265" y2="609" stroke-width="2" stroke="orange"/>
		
		<line x1="515" y1="210" x2="465" y2="595" stroke-width="2" stroke="orange"/>
		
		<line x1="639" y1="684" x2="265" y2="609" stroke-width="2" stroke="orange"/>
		<line x1="639" y1="684" x2="465" y2="624" stroke-width="2" stroke="orange"/>
		<line x1="639" y1="684" x2="240" y2="280" stroke-width="2" stroke="orange"/>
		
		<line x1="208" y1="613" x2="215" y2="664" stroke-width="2" stroke="orange"/>
		
		<line x1="782" y1="1277" x2="940" y2="1280" stroke-width="2" stroke="orange"/>
		
		<line x1="429" y1="1017" x2="371" y2="1188" stroke-width="2" stroke="orange"/>
		<line x1="203" y1="1060" x2="371" y2="1188" stroke-width="2" stroke="orange"/>
		<line x1="429" y1="1022" x2="210" y2="1036" stroke-width="2" stroke="orange"/>
		<line x1="208" y1="1060" x2="210" y2="1036" stroke-width="2" stroke="orange"/>
		<line x1="203" y1="1308" x2="371" y2="1188" stroke-width="2" stroke="orange"/>
		<line x1="205" y1="1308" x2="210" y2="1036" stroke-width="2" stroke="orange"/>
		<line x1="210" y1="1308" x2="210" y2="1284" stroke-width="2" stroke="orange"/>
		
		<line x1="644" y1="684" x2="693" y2="840" stroke-width="2" stroke="orange"/>
		
		<line x1="598" y1="1252" x2="694" y2="1170" stroke-width="2" stroke="orange"/>
		<line x1="598" y1="1252" x2="563" y2="1245" stroke-width="2" stroke="orange"/>
		
		<line x1="658" y1="1287" x2="563" y2="1325" stroke-width="2" stroke="orange"/>
		<line x1="658" y1="1287" x2="754" y2="1325" stroke-width="2" stroke="orange"/>
		
		<line x1="598" y1="1252" x2="240" y2="1382" stroke-width="2" stroke="orange"/>
		<line x1="598" y1="1252" x2="658" y2="1310" stroke-width="2" stroke="orange"/>
		<line x1="598" y1="1252" x2="1071" y2="1465" stroke-width="2" stroke="orange"/>
		
		<line x1="531" y1="786" x2="612" y2="770" stroke-width="2" stroke="orange"/>
		
		<line x1="422" y1="882" x2="334" y2="850" stroke-width="2" stroke="orange"/>
		<line x1="422" y1="882" x2="400" y2="862" stroke-width="2" stroke="orange"/>
		
		<line x1="598" y1="1252" x2="1131" y2="812" stroke-width="2" stroke="orange"/>
		<line x1="598" y1="1252" x2="1131" y2="1111" stroke-width="2" stroke="orange"/>
		<line x1="598" y1="1252" x2="1131" y2="1410" stroke-width="2" stroke="orange"/>
		
		<line x1="515" y1="207" x2="1131" y2="536" stroke-width="2" stroke="orange"/>
	</g>
	
	
	<!-- nappali rész konnektorok -->
	<g class="konnektor" >
		<line x1="515" y1="225" x2="520" y2="245" stroke-width="0.25" stroke="black"/>
		<circle cx="515" cy="225" r="5" fill="red"/>
		<text x="505" y="250" fill="black" font-size="12">20cm magas</text>
		<text x="505" y="265" fill="black" font-size="12">15cm ablaktól</text>
		
		<line x1="250" y1="208" x2="275" y2="208" stroke-width="0.25" stroke="black"/>
		<circle cx="250" cy="208" r="5" fill="red"/>
		<text x="275" y="210" fill="black" font-size="12">20cm magas</text>
		<text x="275" y="225" fill="black" font-size="12">50cm faltól</text>
	</g>
	
	<!-- nappali rész kapcsolok -->
	<g class="kapcsolo">
		<line x1="525" y1="210" x2="520" y2="210" stroke-width="0.25" stroke="black"/>
		<line x1="515" y1="203" x2="515" y2="213" stroke-width="10" stroke="blue"/>
		<text x="525" y="210" fill="black" font-size="12">90cm magas</text>
		<text x="525" y="225" fill="black" font-size="12">15cm ablaktól</text>
		
		<line x1="240" y1="200" x2="240" y2="280" stroke-width="0.5" stroke="black"/>
		<text x="240" y="240" fill="black" font-size="12">80cm</text>
		<line x1="200" y1="280" x2="240" y2="280" stroke-width="0.5" stroke="black"/>
		<text x="200" y="290" fill="black" font-size="12">40cm</text>
		<circle cx="240" cy="280" r="10" fill="yellow"/>
		<text x="260" y="285" fill="black" font-size="12">- Sín lámpa</text>
	</g>
	
	<!-- tv rész kapcsolok -->
	<g class="kapcsolo">
		<line x1="208" y1="613" x2="215" y2="575" stroke-width="0.25" stroke="black"/>
		<line x1="203" y1="613" x2="213" y2="613" stroke-width="10" stroke="blue"/>
		<text x="203" y="560" fill="black" font-size="12">90cm magas</text>
		<text x="203" y="575" fill="black" font-size="12">15cm ablaktól</text>
		
		<line x1="265" y1="609" x2="265" y2="669" stroke-width="0.5" stroke="black"/>
		<text x="265" y="645" fill="black" font-size="12">60cm</text>
		<line x1="200" y1="609" x2="265" y2="609" stroke-width="0.5" stroke="black"/>
		<text x="215" y="609" fill="black" font-size="12">65cm</text>
		
		<line x1="265" y1="609" x2="365" y2="609" stroke-width="0.5" stroke="black"/>
		<text x="300" y="609" fill="black" font-size="12">100cm</text>
		
		<line x1="365" y1="609" x2="465" y2="609" stroke-width="0.5" stroke="black"/>
		<text x="400" y="609" fill="black" font-size="12">100cm</text>
		
		<line x1="465" y1="609" x2="565" y2="609" stroke-width="0.5" stroke="black"/>
		<text x="500" y="609" fill="black" font-size="12">100cm</text>
		
		<circle cx="265" cy="609" r="10" fill="yellow"/>
		<circle cx="365" cy="609" r="10" fill="yellow"/>
		<circle cx="465" cy="609" r="10" fill="yellow"/>
		<circle cx="565" cy="609" r="10" fill="yellow"/>
		
		<line x1="350" y1="594" x2="580" y2="594" stroke-width="2" stroke="yellow"/>
		<line x1="350" y1="624" x2="580" y2="624" stroke-width="2" stroke="yellow"/>
		<line x1="350" y1="594" x2="350" y2="624" stroke-width="2" stroke="yellow"/>
		<line x1="580" y1="594" x2="580" y2="624" stroke-width="2" stroke="yellow"/>
		
		<line x1="639" y1="684" x2="660" y2="684" stroke-width="0.25" stroke="black"/>
		<line x1="639" y1="684" x2="649" y2="684" stroke-width="10" stroke="blue"/>
		<text x="659" y="680" fill="black" font-size="12">90cm magas</text>
		<text x="659" y="695" fill="black" font-size="12">tartó oszlop mellett</text>
		
		<line x1="215" y1="664" x2="130" y2="640" stroke-width="0.25" stroke="black"/>
		<circle cx="215" cy="664" r="10" fill="yellow"/>
		<text x="100" y="605" fill="black" font-size="12">LED kiállás</text>
		<text x="100" y="620" fill="black" font-size="12">65cm magas</text>
		<text x="100" y="635" fill="black" font-size="12">15cm saroktól</text>
	</g>
	
	<!-- csongi szoba konnektorok -->
	<g class="konnektor" >
		<line x1="772" y1="938" x2="800" y2="990" stroke-width="0.25" stroke="black"/>
		<circle cx="772" cy="938" r="5" fill="red"/>
		<text x="802" y="990" fill="black" font-size="12">20cm magas</text>
		<text x="802" y="1005" fill="black" font-size="12">15cm ajtótól</text>
		
		<line x1="795" y1="781" x2="795" y2="795" stroke-width="0.25" stroke="black"/>
		<circle cx="795" cy="781" r="5" fill="red"/>
		<text x="775" y="800" fill="black" font-size="12">20cm magas</text>
		<text x="775" y="815" fill="black" font-size="12">30cm faltól</text>
		
		<line x1="1050" y1="804" x2="1103" y2="804" stroke-width="0.25" stroke="black"/>
		<circle cx="1103" cy="804" r="5" fill="red"/>
		<text x="1000" y="800" fill="black" font-size="12">20cm magas</text>
		<text x="1000" y="815" fill="black" font-size="12">30cm faltól</text>
		
		<line x1="1060" y1="1080" x2="1081" y2="1098" stroke-width="0.25" stroke="black"/>
		<circle cx="1081" cy="1098" r="5" fill="red"/>
		<text x="1000" y="1070" fill="black" font-size="12">20cm magas</text>
		<text x="1000" y="1085" fill="black" font-size="12">30cm faltól</text>
	</g>
	
	<!-- csongi szoba kapcsolok -->
	<g class="kapcsolo">
		<line x1="772" y1="918" x2="800" y2="900" stroke-width="0.25" stroke="black"/>
		<line x1="772" y1="918" x2="772" y2="928" stroke-width="10" stroke="blue"/>
		<text x="802" y="900" fill="black" font-size="12">90cm magas</text>
		<text x="802" y="915" fill="black" font-size="12">15cm ajtótól</text>
		
		<circle cx="940" cy="940" r="10" fill="yellow"/>
		<text x="960" y="940" fill="black" font-size="12">- Csillár középen</text>
	</g>
	
	<!-- nori szoba kapcsolok -->
	<g class="kapcsolo">
		<line x1="810" y1="1250" x2="782" y2="1280" stroke-width="0.25" stroke="black"/>
		<line x1="782" y1="1272" x2="782" y2="1282" stroke-width="10" stroke="blue"/>
		<text x="812" y="1250" fill="black" font-size="12">90cm magas</text>
		<text x="812" y="1265" fill="black" font-size="12">15cm ajtótól</text>
		
		<circle cx="940" cy="1280" r="10" fill="yellow"/>
		<text x="960" y="1280" fill="black" font-size="12">- Csillár középen</text>
	</g>
	
	<!-- nori szoba konnektorok -->
	<g class="konnektor" >
		<line x1="782" y1="1293" x2="812" y2="1315" stroke-width="0.25" stroke="black"/>
		<circle cx="782" cy="1293" r="5" fill="red"/>
		<text x="812" y="1310" fill="black" font-size="12">20cm magas</text>
		<text x="812" y="1325" fill="black" font-size="12">15cm ajtótól</text>
		
		<line x1="804" y1="1438" x2="815" y2="1410" stroke-width="0.25" stroke="black"/>
		<circle cx="804" cy="1438" r="5" fill="red"/>
		<text x="815" y="1400" fill="black" font-size="12">20cm magas</text>
		<text x="815" y="1415" fill="black" font-size="12">30cm faltól</text>
		
		<line x1="1081" y1="1125" x2="1060" y2="1155" stroke-width="0.25" stroke="black"/>
		<circle cx="1081" cy="1125" r="5" fill="red"/>
		<text x="1000" y="1155" fill="black" font-size="12">20cm magas</text>
		<text x="1000" y="1170" fill="black" font-size="12">30cm faltól</text>
		
		<line x1="1081" y1="1437" x2="1060" y2="1420" stroke-width="0.25" stroke="black"/>
		<circle cx="1081" cy="1437" r="5" fill="red"/>
		<text x="1000" y="1400" fill="black" font-size="12">20cm magas</text>
		<text x="1000" y="1415" fill="black" font-size="12">30cm faltól</text>
	</g>
	
	<!-- halo szoba kapcsolok -->
	<g class="kapcsolo">
		<line x1="429" y1="1020" x2="380" y2="1045" stroke-width="0.25" stroke="black"/>
		<line x1="429" y1="1017" x2="429" y2="1027" stroke-width="10" stroke="blue"/>
		<text x="350" y="1050" fill="black" font-size="12">90cm magas</text>
		<text x="350" y="1065" fill="black" font-size="12">15cm ajtótól</text>
		
		<circle cx="371" cy="1188" r="10" fill="yellow"/>
		<text x="385" y="1188" fill="black" font-size="12">- Csillár középen</text>
		
		<line x1="145" y1="990" x2="210" y2="1036" stroke-width="0.25" stroke="black"/>
		<text x="80" y="965" fill="black" font-size="12">Falból kiálló lámpa</text>
		<text x="80" y="980" fill="black" font-size="12">150cm magas</text>
		<text x="80" y="995" fill="black" font-size="12">22cm faltól</text>
		<circle cx="210" cy="1036" r="10" fill="yellow"/>
		
		<line x1="145" y1="1060" x2="210" y2="1060" stroke-width="0.25" stroke="black"/>
		<line x1="203" y1="1060" x2="213" y2="1060" stroke-width="10" stroke="blue"/>
		<text x="80" y="1050" fill="black" font-size="12">90cm magas</text>
		<text x="80" y="1065" fill="black" font-size="12">22cm faltól</text>
		
		<line x1="210" y1="1284" x2="145" y2="1235" stroke-width="0.25" stroke="black"/>
		<text x="80" y="1220" fill="black" font-size="12">Falból kiálló lámpa</text>
		<text x="80" y="1235" fill="black" font-size="12">150cm magas</text>
		<text x="80" y="1250" fill="black" font-size="12">270cm faltól</text>
		<circle cx="210" cy="1284" r="10" fill="yellow"/>
		
		<line x1="145" y1="1308" x2="210" y2="1308" stroke-width="0.25" stroke="black"/>
		<line x1="203" y1="1308" x2="213" y2="1308" stroke-width="10" stroke="blue"/>
		<text x="80" y="1308" fill="black" font-size="12">90cm magas</text>
		<text x="80" y="1323" fill="black" font-size="12">270cm faltól</text>
		
		<line x1="210" y1="1284" x2="210" y2="1010" stroke-width="0.5" stroke="black"/>
		<text x="210" y="1264" fill="black" font-size="12">270cm</text>
	</g>
	
	<!-- halo szoba konnektorok -->
	<g class="konnektor" >
		<line x1="220" y1="1060" x2="150" y2="1105" stroke-width="0.25" stroke="black"/>
		<circle cx="220" cy="1060" r="5" fill="red"/>
		<circle cx="231" cy="1060" r="5" fill="red"/>
		<text x="40" y="1100" fill="black" font-size="12">2 konnektor a kapcsoló</text>
		<text x="40" y="1115" fill="black" font-size="12">mellett, a felettő lévő lámpával</text>
		<text x="40" y="1130" fill="black" font-size="12">középre igazítva</text>
		
		<line x1="220" y1="1308" x2="150" y2="1355" stroke-width="0.25" stroke="black"/>
		<circle cx="220" cy="1308" r="5" fill="red"/>
		<circle cx="231" cy="1308" r="5" fill="red"/>
		<text x="40" y="1348" fill="black" font-size="12">2 konnektor a kapcsoló</text>
		<text x="40" y="1363" fill="black" font-size="12">mellett, a felettő lévő lámpával</text>
		<text x="40" y="1378" fill="black" font-size="12">középre igazítva</text>
		
		<line x1="137" y1="1410" x2="230" y2="1354" stroke-width="0.25" stroke="black"/>
		<line x1="137" y1="1410" x2="243" y2="1354" stroke-width="0.25" stroke="black"/>
		<circle cx="230" cy="1354" r="5" fill="red"/>
		<circle cx="243" cy="1354" r="5" fill="green"/>
		<text x="100" y="1420" fill="black" font-size="12">konnektor és internet</text>
		<text x="100" y="1435" fill="black" font-size="12">20cm magas</text>
		<text x="100" y="1450" fill="black" font-size="12">30cm faltól</text>
		
		<line x1="535" y1="1035" x2="520" y2="1025" stroke-width="0.25" stroke="black"/>
		<circle cx="535" cy="1035" r="5" fill="red"/>
		<text x="460" y="1020" fill="black" font-size="12">20cm magas</text>
		<text x="460" y="1035" fill="black" font-size="12">30cm faltól</text>
		
		<line x1="450" y1="1220" x2="535" y2="1142" stroke-width="0.25" stroke="black"/>
		<line x1="450" y1="1220" x2="535" y2="1156" stroke-width="0.25" stroke="black"/>
		<line x1="450" y1="1220" x2="535" y2="1169" stroke-width="0.25" stroke="black"/>
		<line x1="450" y1="1220" x2="535" y2="1182" stroke-width="0.25" stroke="black"/>
		<line x1="450" y1="1220" x2="535" y2="1195" stroke-width="0.25" stroke="black"/>
		<line x1="535" y1="1370" x2="535" y2="1195" stroke-width="0.5" stroke="black"/>
		<circle cx="535" cy="1142" r="5" fill="purple"/>
		<circle cx="535" cy="1156" r="5" fill="green"/>
		<circle cx="535" cy="1169" r="5" fill="red"/>
		<circle cx="535" cy="1182" r="5" fill="red"/>
		<circle cx="535" cy="1195" r="5" fill="red"/>
		<text x="400" y="1230" fill="black" font-size="12">3 konnector, internet, tv</text>
		<text x="400" y="1245" fill="black" font-size="12">40cm magas</text>
		<text x="400" y="1260" fill="black" font-size="12">170cm faltól</text>
		<text x="500" y="1320" fill="black" font-size="12">170cm</text>
	</g>
	
	<!-- kozlekedo kapcsolok -->
	<g class="kapcsolo">
		<line x1="679" y1="839" x2="709" y2="839" stroke-width="2" stroke="yellow"/>
		<line x1="679" y1="839" x2="679" y2="1169" stroke-width="2" stroke="yellow"/>
		<line x1="679" y1="1169" x2="709" y2="1169" stroke-width="2" stroke="yellow"/>
		<line x1="709" y1="839" x2="709" y2="1169" stroke-width="2" stroke="yellow"/>
		
		<line x1="694" y1="954" x2="550" y2="954" stroke-width="0.5" stroke="black" stroke-dasharray="5,5"/>
		<line x1="550" y1="899" x2="550" y2="1002" stroke-width="0.5" stroke="black" stroke-dasharray="5,5"/>
		<text x="550" y="950" fill="black" font-size="12">középen</text>
		
		<text x="640" y="854" fill="black" font-size="12">középen</text>
		<line x1="635" y1="854" x2="760" y2="854" stroke-width="0.5" stroke="black"/>
		<line x1="694" y1="854" x2="694" y2="954" stroke-width="0.5" stroke="black"/>
		<text x="694" y="904" fill="black" font-size="12">100cm</text>
		<line x1="694" y1="954" x2="694" y2="1054" stroke-width="0.5" stroke="black"/>
		<text x="694" y="1004" fill="black" font-size="12">100cm</text>
		<line x1="694" y1="1054" x2="694" y2="1154" stroke-width="0.5" stroke="black"/>
		<text x="694" y="1104" fill="black" font-size="12">100cm</text>
		<circle cx="694" cy="854" r="10" fill="yellow"/>
		<circle cx="694" cy="954" r="10" fill="yellow"/>
		<circle cx="694" cy="1054" r="10" fill="yellow"/>
		<circle cx="694" cy="1154" r="10" fill="yellow"/>
		
		<line x1="563" y1="1245" x2="575" y2="1215" stroke-width="0.5" stroke="black"/>
		<circle cx="563" cy="1245" r="10" fill="yellow"/>
		<text x="580" y="1200" fill="black" font-size="12">LED kiállás</text>
		<text x="580" y="1215" fill="black" font-size="12">20cm magas</text>
		<text x="580" y="1230" fill="black" font-size="12">30cm faltól</text>
		
		<line x1="598" y1="1255" x2="680" y2="1215" stroke-width="0.25" stroke="black"/>
		<line x1="598" y1="1235" x2="598" y2="1245" stroke-width="10" stroke="pink"/>
		<line x1="598" y1="1247" x2="598" y2="1257" stroke-width="10" stroke="blue"/>
		<line x1="598" y1="1260" x2="598" y2="1270" stroke-width="10" stroke="brown"/>
		<text x="680" y="1200" fill="black" font-size="12">Riasztó, Kapcsolók és Kaputelefon</text>
		<text x="680" y="1215" fill="black" font-size="12">egymás alatt, a kapcsoló 90cm magasan</text>
		<text x="680" y="1230" fill="black" font-size="12">15cm ajtótól</text>
		
	</g>
	
	<!-- elso kinti kapcsolok -->
	<g class="kapcsolo">
		<line x1="658" y1="1282" x2="608" y2="1440" stroke-width="0.25" stroke="black"/>
		<line x1="658" y1="1282" x2="658" y2="1292" stroke-width="10" stroke="DarkSalmon"/>
		<text x="570" y="1450" fill="black" font-size="12">Mozgásérzékelő</text>
		<text x="550" y="1465" fill="black" font-size="12">Ajtó felett 15cm, középen</text>
		
		<line x1="754" y1="1325" x2="754" y2="1367" stroke-width="0.25" stroke="black"/>		
		<circle cx="563" cy="1325" r="10" fill="yellow"/>
		<circle cx="754" cy="1325" r="10" fill="yellow"/>
		<line x1="563" y1="1280" x2="563" y2="1367" stroke-width="0.25" stroke="black"/>
		<text x="563" y="1350" fill="black" font-size="12">Középen</text>
		<text x="563" y="1365" fill="black" font-size="12">160cm magas</text>
		<text x="630" y="1375" fill="black" font-size="12">Szemben a másik lámpával</text>
		<text x="695" y="1390" fill="black" font-size="12">160cm magas</text>
	</g>
	
	<!-- kinti fények kapcsolok -->
	<g class="kapcsolo">
		<line x1="658" y1="1310" x2="700" y2="1500" stroke-width="0.25" stroke="black"/>
		<line x1="1071" y1="1465" x2="1060" y2="1500" stroke-width="0.25" stroke="black"/>
		<line x1="240" y1="1382" x2="240" y2="1500" stroke-width="0.25" stroke="black"/>
	
		<circle cx="240" cy="1382" r="10" fill="yellow"/>
		<circle cx="1071" cy="1465" r="10" fill="yellow"/>
		<circle cx="658" cy="1310" r="10" fill="yellow"/>
		
		<text x="1065" y="1468" fill="black" font-size="12">A*</text>
		<text x="700" y="1500" fill="black" font-size="12">Lámpa középen</text>
		<text x="700" y="1515" fill="black" font-size="12">Mozgásérzékelő felett</text>
		
		<text x="653" y="1312" fill="black" font-size="12">A*</text>
		<text x="1000" y="1500" fill="black" font-size="12">Lámpa középen</text>
		<text x="1000" y="1515" fill="black" font-size="12">Lehető legmagasabban</text>
		
		<text x="235" y="1385" fill="black" font-size="12">A*</text>
		<text x="240" y="1500" fill="black" font-size="12">Lámpa középen</text>
		<text x="240" y="1515" fill="black" font-size="12">Lehető legmagasabban</text>
		<text x="240" y="1530" fill="black" font-size="12">A* együtt kapcsolható</text>
	
		<circle cx="1131" cy="812" r="10" fill="yellow"/>
		<circle cx="1131" cy="1111" r="10" fill="yellow"/>
		<circle cx="1131" cy="1410" r="10" fill="yellow"/>
		<text x="1125" y="814" fill="black" font-size="12">B*</text>
		<text x="1125" y="1114" fill="black" font-size="12">B*</text>
		<text x="1125" y="1413" fill="black" font-size="12">B*</text>
		
		<circle cx="1131" cy="536" r="10" fill="yellow"/>
	</g>
	
	<!-- mosokonyha konnektorok -->
	<g class="konnektor" >
		<line x1="464" y1="686" x2="465" y2="710" stroke-width="0.25" stroke="black"/>
		<circle cx="464" cy="686" r="5" fill="red"/>
		<text x="440" y="715" fill="black" font-size="12">Hőszivattyú</text>
		<text x="440" y="730" fill="black" font-size="12">90cm magas</text>
		<text x="440" y="745" fill="black" font-size="12">30cm faltól</text>
		
		<line x1="620" y1="595" x2="570" y2="686" stroke-width="0.25" stroke="black"/>
		<line x1="620" y1="595" x2="584" y2="686" stroke-width="0.25" stroke="black"/>
		<circle cx="584" cy="686" r="5" fill="red"/>
		<circle cx="570" cy="686" r="5" fill="red"/>
		<text x="604" y="560" fill="black" font-size="12">Mosógép, szárítógép</text>
		<text x="604" y="575" fill="black" font-size="12">90cm magas</text>
		<text x="604" y="590" fill="black" font-size="12">30cm oszloptól</text>
		
		<line x1="595" y1="686" x2="634" y2="660" stroke-width="0.25" stroke="black"/>
		<circle cx="595" cy="686" r="5" fill="red"/>
		<text x="634" y="630" fill="black" font-size="12">Szellőztetőgép kiállás</text>
		<text x="634" y="645" fill="black" font-size="12">200cm magas</text>
		<text x="634" y="660" fill="black" font-size="12">30cm oszloptól</text>
		
		<line x1="618" y1="715" x2="600" y2="715" stroke-width="0.25" stroke="black"/>
		<circle cx="618" cy="715" r="5" fill="red"/>
		<text x="540" y="715" fill="black" font-size="12">100cm magas</text>
		<text x="540" y="730" fill="black" font-size="12">15cm oszloptól</text>
		
		<line x1="618" y1="783" x2="550" y2="820" stroke-width="0.25" stroke="black"/>
		<circle cx="618" cy="783" r="5" fill="red"/>
		<text x="500" y="820" fill="black" font-size="12">90cm magas</text>
		<text x="500" y="835" fill="black" font-size="12">15cm ajtótól</text>
		
		<line x1="595" y1="888" x2="550" y2="880" stroke-width="0.25" stroke="black"/>
		<circle cx="595" cy="888" r="5" fill="red"/>
		<text x="500" y="865" fill="black" font-size="12">130cm magas</text>
		<text x="500" y="880" fill="black" font-size="12">15cm ajtótól</text>
	</g>
	
	<!-- furdo konnektorok -->
	<g class="konnektor" >
	<line x1="422" y1="900" x2="410" y2="940" stroke-width="0.25" stroke="black"/>
		<line x1="464" y1="686" x2="465" y2="710" stroke-width="0.25" stroke="black"/>
		<circle cx="422" cy="900" r="5" fill="red"/>
		<text x="365" y="950" fill="black" font-size="12">15cm ajtótól</text>
		<text x="365" y="965" fill="black" font-size="12">kapcsoló felett</text>

	</g>
	
	<!-- furdo fények kapcsolok -->
	<g class="kapcsolo">
		<circle cx="531" cy="786" r="10" fill="yellow"/>
	
		<line x1="317" y1="674" x2="317" y2="1009" stroke-width="0.25" stroke="black"/>
		<line x1="427" y1="887" x2="400" y2="890" stroke-width="0.25" stroke="black"/>
		<circle cx="317" cy="786" r="10" fill="yellow"/>
		<circle cx="317" cy="897" r="10" fill="yellow"/>
		<circle cx="400" cy="862" r="10" fill="yellow"/>
		
		<text x="317" y="740" fill="black" font-size="12">111cm</text>
		<text x="316" y="850" fill="black" font-size="12">111cm</text>
		<text x="317" y="960" fill="black" font-size="12">111cm</text>
		
		<line x1="612" y1="770" x2="600" y2="760" stroke-width="0.25" stroke="black"/>
		<text x="550" y="755" fill="black" font-size="12">90cm magas</text>
		<text x="550" y="770" fill="black" font-size="12">15cm ajtótól</text>
		<line x1="612" y1="770" x2="622" y2="770" stroke-width="10" stroke="blue"/>
		
		<line x1="422" y1="882" x2="422" y2="892" stroke-width="10" stroke="blue"/>
		
		<line x1="302" y1="771" x2="332" y2="771" stroke-width="2" stroke="yellow"/>
		<line x1="302" y1="771" x2="302" y2="912" stroke-width="2" stroke="yellow"/>
		<line x1="302" y1="912" x2="332" y2="912" stroke-width="2" stroke="yellow"/>
		<line x1="332" y1="771" x2="332" y2="912" stroke-width="2" stroke="yellow"/>
		
		<line x1="400" y1="862" x2="410" y2="800" stroke-width="0.25" stroke="black"/>
		
		<text x="345" y="800" fill="black" font-size="12">Csillár plafonból</text>
		<text x="345" y="815" fill="black" font-size="12">35cm ajtótól</text>
		<text x="345" y="830" fill="black" font-size="12">20cm faltól</text>
		
		<text x="345" y="900" fill="black" font-size="12">15cm ajtótól</text>
		<text x="345" y="915" fill="black" font-size="12">130cm magas</text>
	</g>
	
	<!-- tv konnektorok -->
	<g class="konnektor" >
	
		<line x1="160" y1="700" x2="235" y2="662" stroke-width="0.25" stroke="black"/>
		<line x1="160" y1="700" x2="247" y2="662" stroke-width="0.25" stroke="black"/>
		<line x1="160" y1="700" x2="259" y2="662" stroke-width="0.25" stroke="black"/>
		<line x1="160" y1="700" x2="271" y2="662" stroke-width="0.25" stroke="black"/>
		<line x1="160" y1="700" x2="283" y2="662" stroke-width="0.25" stroke="black"/>
		<line x1="160" y1="700" x2="295" y2="662" stroke-width="0.25" stroke="black"/>
		<line x1="160" y1="700" x2="307" y2="662" stroke-width="0.25" stroke="black"/>
		<circle cx="235" cy="662" r="5" fill="red"/>
		<circle cx="247" cy="662" r="5" fill="red"/>
		<circle cx="259" cy="662" r="5" fill="red"/>
		<circle cx="271" cy="662" r="5" fill="red"/>
		<circle cx="283" cy="662" r="5" fill="red"/>
		<circle cx="295" cy="662" r="5" fill="red"/>
		<circle cx="307" cy="662" r="5" fill="green"/>
		<text x="50" y="700" fill="black" font-size="12">6 konnektor és internet</text>
		<text x="50" y="715" fill="black" font-size="12">30 cm faltól</text>
		<text x="50" y="730" fill="black" font-size="12">65 cm magasan</text>
	
		<line x1="604" y1="662" x2="580" y2="545" stroke-width="0.25" stroke="black"/>
		<circle cx="604" cy="662" r="5" fill="red"/>
		<text x="530" y="530" fill="black" font-size="12">40cm magas</text>
		<text x="530" y="545" fill="black" font-size="12">30cm faltól</text>

		<line x1="484" y1="662" x2="634" y2="662" stroke-width="0.25" stroke="black"/>
		<line x1="400" y1="693" x2="484" y2="662" stroke-width="0.25" stroke="black"/>
		<line x1="400" y1="693" x2="472" y2="662" stroke-width="0.25" stroke="black"/>
		<line x1="400" y1="693" x2="460" y2="662" stroke-width="0.25" stroke="black"/>
		<line x1="400" y1="693" x2="448" y2="662" stroke-width="0.25" stroke="black"/>
		<line x1="400" y1="693" x2="436" y2="662" stroke-width="0.25" stroke="black"/>
		<line x1="400" y1="693" x2="424" y2="662" stroke-width="0.25" stroke="black"/>
		<circle cx="484" cy="662" r="5" fill="red"/>
		<circle cx="472" cy="662" r="5" fill="red"/>
		<circle cx="460" cy="662" r="5" fill="red"/>
		<circle cx="448" cy="662" r="5" fill="red"/>
		<circle cx="436" cy="662" r="5" fill="green"/>
		<circle cx="424" cy="662" r="5" fill="purple"/>
		<text x="300" y="700" fill="black" font-size="12">4 konnektor, internet és tv</text>
		<text x="360" y="715" fill="black" font-size="12">150cm faltól</text>
		<text x="360" y="730" fill="black" font-size="12">40cm magas</text>
		<text x="500" y="662" fill="black" font-size="12">150cm</text>
		
		<line x1="1105" y1="216" x2="1155" y2="216" stroke-width="0.25" stroke="black"/>
		<circle cx="1105" cy="216" r="5" fill="red"/>
		<text x="1155" y="216" fill="black" font-size="12">20cm magas</text>
		<text x="1155" y="231" fill="black" font-size="12">középen</text>
	</g>
	
</svg>